<?xml version="1.0" encoding="iso-8859-1"?>
<!-- Generator: Adobe Illustrator 21.0.0, SVG Export Plug-In . SVG Version: 6.00 Build 0)  -->
<svg xmlns="http://www.w3.org/2000/svg" xmlns:xlink="http://www.w3.org/1999/xlink" version="1.1" id="Capa_1" x="0px" y="0px" viewBox="0 0 497 497" style="enable-background:new 0 0 497 497;" xml:space="preserve" width="512" height="512">
<g>
	<path style="fill:#7CCCF2;" d="M43.979,30v437c0,16.569,13.431,30,30,30h241.958c16.569,0,30-13.431,30-30V30   c0-16.569-13.431-30-30-30H73.979C57.41,0,43.979,13.431,43.979,30z"/>
	<path style="fill:#4FACDB;" d="M315.937,0h-26.5c16.569,0,30,13.431,30,30v437c0,16.569-13.431,30-30,30h26.5   c16.569,0,30-13.431,30-30V30C345.937,13.431,332.505,0,315.937,0z"/>
	<path style="fill:#52668D;" d="M43.979,420.328V467c0,16.569,13.432,30,30,30h241.958c16.568,0,30-13.431,30-30v-46.672H43.979z"/>
	<path style="fill:#243B5D;" d="M345.937,467v-46.672h-26.5V467c0,16.569-13.431,30-30,30h26.5c3.107,0,6.103-0.472,8.921-1.349   c2.818-0.877,5.458-2.157,7.852-3.775C340.69,486.485,345.937,477.355,345.937,467z"/>
	<path style="fill:#BDC3C6;" d="M168.458,455.678v5.973c0,5.807,4.707,10.514,10.514,10.514h31.973   c5.807,0,10.514-4.707,10.514-10.514v-5.973c0-5.807-4.707-10.514-10.514-10.514h-31.973   C173.165,445.164,168.458,449.871,168.458,455.678z"/>
	<path style="fill:#52668D;" d="M133.085,0l6.047,17.504c3.651,10.567,13.6,17.656,24.78,17.656h62.092   c11.18,0,21.13-7.089,24.78-17.656L256.831,0H133.085z"/>
	<g>
		<circle style="fill:#F4D34C;" cx="194.958" cy="248.5" r="91.446"/>
		<path style="fill:#D6A10D;" d="M224.28,161.857c25.707,16.186,42.79,44.818,42.79,77.441c0,50.504-40.942,91.446-91.446,91.446    c-10.256,0-20.118-1.688-29.323-4.803c14.091,8.872,30.774,14.005,48.656,14.005c50.504,0,91.446-40.942,91.446-91.446    C286.404,208.252,260.402,174.077,224.28,161.857z"/>
		<path style="fill:#EBEEF2;" d="M194.958,302.267L194.958,302.267c-14.969,0-27.104-12.135-27.104-27.104v-6.118    c0-3.551,2.879-6.43,6.43-6.43h41.348c3.551,0,6.43,2.879,6.43,6.43v6.118C222.062,290.133,209.927,302.267,194.958,302.267z"/>
		<g>
			<path style="fill:#223372;" d="M137.533,238.872c-1.71,0-3.43-0.582-4.838-1.772c-3.164-2.674-3.56-7.406-0.886-10.569     c5.703-6.747,11.902-10.168,18.424-10.168c6.522,0,12.722,3.421,18.425,10.168c2.674,3.163,2.278,7.896-0.885,10.569     c-3.165,2.673-7.896,2.277-10.57-0.886c-2.645-3.128-5.12-4.852-6.97-4.852s-4.325,1.724-6.97,4.852     C141.781,237.969,139.664,238.872,137.533,238.872z"/>
			<path style="fill:#223372;" d="M226.98,238.872c-1.71,0-3.43-0.582-4.838-1.772c-3.164-2.674-3.56-7.406-0.886-10.569     c5.703-6.747,11.902-10.168,18.424-10.168c6.522,0,12.722,3.421,18.425,10.168c2.674,3.163,2.278,7.896-0.885,10.569     c-3.165,2.673-7.897,2.277-10.57-0.886c-2.645-3.128-5.12-4.852-6.97-4.852s-4.325,1.724-6.97,4.852     C231.229,237.969,229.112,238.872,226.98,238.872z"/>
		</g>
	</g>
	<path style="fill:#EBEEF2;" d="M302.538,30.516h134.349c8.911,0,16.134,7.224,16.134,16.134v82.217   c0,8.911-7.224,16.134-16.134,16.134h-86.295l-34.356,29.82c-3.683,3.197-9.378,0.234-8.875-4.616l2.614-25.203h-7.436   c-8.911,0-16.134-7.224-16.134-16.134V46.651C286.404,37.74,293.627,30.516,302.538,30.516z"/>
	<path style="fill:#C9CDD3;" d="M436.887,30.516h-24.776c8.911,0,16.134,7.224,16.134,16.135v82.217   c0,8.911-7.224,16.135-16.134,16.135h24.776c8.911,0,16.134-7.224,16.134-16.135V46.651   C453.021,37.74,445.797,30.516,436.887,30.516z"/>
	<g>
		<path style="fill:#223372;" d="M407.897,92.285h-1.075c-4.142,0-7.5-3.357-7.5-7.5s3.358-7.5,7.5-7.5h1.075    c4.142,0,7.5,3.357,7.5,7.5S412.039,92.285,407.897,92.285z"/>
		<path style="fill:#223372;" d="M370.25,92.285h-1.076c-4.142,0-7.5-3.357-7.5-7.5s3.358-7.5,7.5-7.5h1.076    c4.142,0,7.5,3.357,7.5,7.5S374.392,92.285,370.25,92.285z"/>
		<path style="fill:#223372;" d="M332.603,92.285h-1.076c-4.142,0-7.5-3.357-7.5-7.5s3.358-7.5,7.5-7.5h1.076    c4.142,0,7.5,3.357,7.5,7.5S336.745,92.285,332.603,92.285z"/>
	</g>
</g>















</svg>
