<?xml version="1.0" encoding="iso-8859-1"?>
<!-- Generator: Adobe Illustrator 21.0.0, SVG Export Plug-In . SVG Version: 6.00 Build 0)  -->
<svg xmlns="http://www.w3.org/2000/svg" xmlns:xlink="http://www.w3.org/1999/xlink" version="1.1" id="Capa_1" x="0px" y="0px" viewBox="0 0 512 512" style="enable-background:new 0 0 512 512;" xml:space="preserve" width="512" height="512">
<g>
	<path style="fill:#7CCCF2;" d="M156.071,30.905v450.189c0,17.069,13.837,30.905,30.905,30.905h249.26   c17.069,0,30.905-13.837,30.905-30.905V30.905C467.142,13.837,453.305,0,436.236,0h-249.26   C169.907,0,156.071,13.837,156.071,30.905z"/>
	<path style="fill:#4FACDB;" d="M410.921,187.629h-254.85V389.08h254.85c8.534,0,15.453-6.919,15.453-15.453V203.081   C426.373,194.547,419.455,187.629,410.921,187.629z"/>
	<path style="fill:#4FACDB;" d="M436.236,0h-27.3c17.069,0,30.905,13.837,30.905,30.905v450.189   c0,17.069-13.837,30.905-30.905,30.905h27.3c17.069,0,30.905-13.837,30.905-30.905V30.905C467.142,13.837,453.305,0,436.236,0z"/>
	<path style="fill:#52668D;" d="M156.071,433.014v48.08c0,17.069,13.837,30.905,30.905,30.905h249.26   c17.069,0,30.906-13.837,30.906-30.905v-48.08H156.071z"/>
	<path style="fill:#243B5D;" d="M467.142,481.095v-48.08h-27.3v48.08c0,17.069-13.837,30.905-30.905,30.905h27.3   c3.2,0,6.287-0.486,9.19-1.389c2.903-0.903,5.623-2.223,8.089-3.889C461.737,501.168,467.142,491.763,467.142,481.095z"/>
	<path style="fill:#BDC3C6;" d="M284.306,469.431v6.153c0,5.982,4.849,10.831,10.831,10.831h32.938   c5.982,0,10.831-4.849,10.831-10.831v-6.153c0-5.982-4.849-10.831-10.831-10.831h-32.938   C289.156,458.6,284.306,463.449,284.306,469.431z"/>
	<path style="fill:#52668D;" d="M247.866,0l6.23,18.032c3.761,10.886,14.011,18.189,25.528,18.189h63.966   c11.517,0,21.767-7.303,25.528-18.189L375.347,0H247.866z"/>
	<path style="fill:#EBEEF2;" d="M386.301,364.355H130.219c-8.534,0-15.453-6.918-15.453-15.453V178.357   c0-8.534,6.918-15.453,15.453-15.453h256.082c8.534,0,15.453,6.918,15.453,15.453v170.545   C401.754,357.437,394.836,364.355,386.301,364.355z"/>
	<path style="fill:#C9CDD3;" d="M386.301,162.904h-29.23c8.534,0,15.453,6.919,15.453,15.453v170.546   c0,8.534-6.918,15.453-15.453,15.453h29.23c8.534,0,15.453-6.919,15.453-15.453V178.357   C401.754,169.823,394.836,162.904,386.301,162.904z"/>
	<path style="fill:#C9CDD3;" d="M401.754,178.357c0-8.534-6.918-15.453-15.453-15.453H130.219c-8.534,0-15.453,6.919-15.453,15.453   v22.495l121.236,95.122c6.32,4.959,14.225,7.69,22.258,7.69c8.033,0,15.938-2.731,22.257-7.689l121.237-95.123V178.357z"/>
	<path style="fill:#C9CDD3;" d="M341.062,324.507c-1.669,0-3.35-0.537-4.764-1.648l-73.267-57.484   c-2.81-2.205-6.732-2.205-9.539-0.001l-73.269,57.485c-3.357,2.634-8.214,2.049-10.848-1.309   c-2.634-3.357-2.048-8.214,1.309-10.848l73.267-57.484c8.424-6.615,20.193-6.614,28.619,0.001l73.265,57.483   c3.357,2.634,3.944,7.491,1.309,10.848C345.622,323.493,343.354,324.507,341.062,324.507z"/>
	<path style="fill:#ADB3BC;" d="M303.791,277.714l-31.219-24.495c-8.427-6.615-20.196-6.616-28.619-0.001l-31.222,24.497   l12.517,9.82l28.246-22.161c2.807-2.204,6.729-2.204,9.539,0.001l28.243,22.159L303.791,277.714z"/>
	<path style="fill:#EBEEF2;" d="M386.301,162.904H130.219c-7.368,0-13.52,5.161-15.068,12.062l133.57,104.799   c5.6,4.394,13.477,4.394,19.077,0l133.57-104.799C399.822,168.065,393.669,162.904,386.301,162.904z"/>
	<g>
		<path style="fill:#BCD151;" d="M93.095,146.736c-1.977,0-3.955-0.755-5.463-2.263l-17.576-17.575    c-3.018-3.018-3.018-7.909,0-10.928c3.017-3.016,7.909-3.016,10.927,0l17.576,17.575c3.018,3.018,3.018,7.909,0,10.928    C97.049,145.982,95.072,146.736,93.095,146.736z"/>
		<path style="fill:#BCD151;" d="M123.829,133.695c-4.267,0-7.726-3.459-7.726-7.726V98.5c0-4.268,3.459-7.726,7.726-7.726    s7.726,3.459,7.726,7.726v27.469C131.555,130.236,128.096,133.695,123.829,133.695z"/>
		<path style="fill:#BCD151;" d="M80.053,177.471H52.584c-4.267,0-7.726-3.459-7.726-7.726c0-4.268,3.459-7.726,7.726-7.726h27.469    c4.267,0,7.726,3.459,7.726,7.726C87.78,174.012,84.32,177.471,80.053,177.471z"/>
	</g>
</g>















</svg>
