<?xml version="1.0" encoding="iso-8859-1"?>
<!-- Generator: Adobe Illustrator 21.0.0, SVG Export Plug-In . SVG Version: 6.00 Build 0)  -->
<svg xmlns="http://www.w3.org/2000/svg" xmlns:xlink="http://www.w3.org/1999/xlink" version="1.1" id="Capa_1" x="0px" y="0px" viewBox="0 0 512 512" style="enable-background:new 0 0 512 512;" xml:space="preserve" width="512" height="512">
<g>
	<path style="fill:#BCD151;" d="M512,320.547v-71.095c0-8.534-6.918-15.453-15.453-15.453h-95.094   c-8.534,0-15.453,6.918-15.453,15.453v71.095c0,8.534,6.918,15.453,15.453,15.453h41.864c8.254,16.822,20.844,31.133,36.316,41.478   c3.748,2.506,8.635-0.759,7.889-5.206c-0.962-5.732-1.462-11.619-1.462-17.624c0-6.363,0.563-12.594,1.64-18.647h8.848   C505.081,336,512,329.081,512,320.547z"/>
	<path style="fill:#8D9F25;" d="M470,244.713V235h-68.547c-8.534,0-15.453,6.918-15.453,15.453V284h44.714   C452.411,284,470,266.411,470,244.713z"/>
	<path style="fill:#7CCCF2;" d="M421.094,94H255.905C238.837,94,225,107.837,225,124.905v106.189   C225,248.163,238.837,262,255.905,262h44.292c0.015,0.719,0.023,1.439,0.023,2.161c0,13.362-2.534,26.132-7.147,37.854   c-1.648,4.189,2.479,8.338,6.657,6.663c22.417-8.991,40.95-25.623,52.385-46.677h68.979C438.163,262,452,248.163,452,231.094   V124.905C452,107.837,438.163,94,421.094,94z"/>
	<g>
		<path style="fill:#3872B7;" d="M26,416.299v80.248C26,505.081,32.918,512,41.453,512h177.095c8.534,0,15.453-6.918,15.453-15.453    V432.97c0-45.823-37.147-82.97-82.97-82.97H92.299C55.683,350,26,379.683,26,416.299z"/>
		<path style="fill:#254E87;" d="M234,432.97c0-45.823-37.147-82.97-82.97-82.97h-24.453C171.546,350,208,387.182,208,433.049    v63.483c0,8.542-6.789,15.467-15.165,15.467h25.712c8.534,0,15.453-6.918,15.453-15.453V432.97z"/>
		<path style="fill:#F6BB93;" d="M175.183,425.041C156.44,432.669,82,361.408,82,357.002V186h96v168.063    C178,356.049,194.886,417.023,175.183,425.041z"/>
		<path style="fill:#E49775;" d="M179.066,359.035c-0.709-1.556-1.066-3.256-1.066-4.972V186H82v117.452    c12.503,37.073,47.449,63.757,88.603,63.757h0c3.412,0,6.78-0.186,10.097-0.543C180.099,363.692,179.527,361.092,179.066,359.035z    "/>
		<ellipse style="fill:#243B5D;" cx="246.724" cy="173.045" rx="45.299" ry="56.681"/>
		<path style="fill:#F6BB93;" d="M177.708,97H76v130H64.444c-7.241,0-13.792,2.962-18.513,7.755    c-4.727,4.801-7.612,11.435-7.472,18.753C38.731,267.772,50.809,279,65.076,279h15.612c12.341,37.46,47.663,64.505,89.312,64.505    h0.123c51.847,0,93.877-42.03,93.877-93.877v-66.335C264,135.634,225.366,97,177.708,97z"/>
		<path style="fill:#E49775;" d="M185.296,99.425C217.824,111.529,241,142.852,241,179.596v65.808    c0,51.386-41.656,93.042-93.042,93.042h0c-2.834,0-5.637-0.134-8.406-0.382c9.812,3.518,20.384,5.44,31.406,5.44h0    c51.386,0,93.042-41.656,93.042-93.042v-65.808C264,139.719,229.337,102.904,185.296,99.425z"/>
		<g>
			<path style="fill:#243B5D;" d="M224.5,229c-4.142,0-7.5-3.357-7.5-7.5v-9c0-4.143,3.358-7.5,7.5-7.5s7.5,3.357,7.5,7.5v9     C232,225.642,228.642,229,224.5,229z"/>
			<path style="fill:#243B5D;" d="M154.5,229c-4.142,0-7.5-3.357-7.5-7.5v-9c0-4.143,3.358-7.5,7.5-7.5s7.5,3.357,7.5,7.5v9     C162,225.642,158.642,229,154.5,229z"/>
		</g>
		<path style="fill:#243B5D;" d="M189.663,287.141c-15.237,0-28.76-9.693-33.65-24.12c-1.33-3.923,0.772-8.181,4.695-9.511    c3.924-1.33,8.181,0.773,9.511,4.696c2.825,8.335,10.639,13.935,19.444,13.935s16.62-5.6,19.445-13.935    c1.33-3.924,5.589-6.023,9.511-4.696c3.923,1.33,6.025,5.588,4.695,9.511C218.424,277.448,204.901,287.141,189.663,287.141z"/>
		<g>
			<path style="fill:#243B5D;" d="M169.515,197.602c-1.558,0.001-3.129-0.483-4.474-1.485c-7.827-5.83-14.808-5.83-22.635,0     c-3.321,2.475-8.02,1.788-10.495-1.534c-2.475-3.322-1.788-8.021,1.535-10.495c13.265-9.881,27.29-9.881,40.555,0     c3.322,2.474,4.009,7.173,1.535,10.495C174.063,196.558,171.803,197.602,169.515,197.602z"/>
			<path style="fill:#243B5D;" d="M241.396,197.602c-1.558,0.001-3.129-0.483-4.474-1.485c-7.828-5.831-14.809-5.83-22.635,0     c-3.321,2.475-8.02,1.788-10.495-1.534c-2.475-3.322-1.788-8.021,1.535-10.495c13.266-9.881,27.29-9.881,40.555,0     c3.322,2.475,4.009,7.173,1.535,10.495C245.945,196.559,243.685,197.602,241.396,197.602z"/>
		</g>
		<path style="fill:#52668D;" d="M313.346,54.692c-9.704,159.348-177.881,93.932-208.746,79.221    c10.426,32.42,0.33,68.455-17.616,93.087H64.248c-7.253,0-13.815,2.967-18.543,7.768c-96.002-90.635-13.33-181.806,1.823-175.965    c3.4-16.473,43.989-47.46,95.724-33.883C204.61,41.021,246.971,36.623,269.182,1.761c1.36-2.143,4.553-1.947,5.594,0.371    c7.088,15.865,10.003,39.806,3.029,57.618c-0.938,2.38,1.185,4.862,3.678,4.244c7.675-1.875,15.978-5.213,26.98-12.156    C310.647,50.458,313.5,52.106,313.346,54.692z"/>
		<g>
			<path style="fill:#243B5D;" d="M246.271,59.481c-0.935,2.386,1.19,4.859,3.679,4.25c7.68-1.88,15.975-5.219,26.978-12.162     c1.072-0.676,2.301-0.622,3.26-0.091c3.649-16.515,0.656-36.026-5.415-49.61c-1.037-2.321-4.228-2.518-5.594-0.374     c-5.481,8.603-12.194,15.344-20.111,20.387C251.132,34.468,250.691,48.202,246.271,59.481z"/>
			<path style="fill:#243B5D;" d="M308.459,51.57c-11.003,6.943-19.298,10.282-26.978,12.162c-0.153,0.037-0.304,0.063-0.453,0.077     c-7.136,67.115-44.644,90.57-86.238,94.846c54.385,4.89,112.948-12.115,118.555-104.227     C313.503,51.842,310.649,50.187,308.459,51.57z"/>
		</g>
		<path style="fill:#85B4E1;" d="M41.449,512H90v-74.537c0-17.673-14.327-32-32-32h0c-17.673,0-32,14.327-32,32v59.088    C26,505.083,32.917,512,41.449,512z"/>
		<path style="fill:#F6BB93;" d="M26,478v18.547C26,505.081,32.918,512,41.453,512H90v-34H26z"/>
	</g>
	<g>
		<path style="fill:#243B5D;" d="M400.5,185h-1c-4.143,0-7.5-3.357-7.5-7.5s3.357-7.5,7.5-7.5h1c4.143,0,7.5,3.357,7.5,7.5    S404.642,185,400.5,185z"/>
		<path style="fill:#243B5D;" d="M360.5,185h-1c-4.143,0-7.5-3.357-7.5-7.5s3.357-7.5,7.5-7.5h1c4.143,0,7.5,3.357,7.5,7.5    S364.642,185,360.5,185z"/>
		<path style="fill:#243B5D;" d="M320.5,185h-1c-4.143,0-7.5-3.357-7.5-7.5s3.357-7.5,7.5-7.5h1c4.143,0,7.5,3.357,7.5,7.5    S324.642,185,320.5,185z"/>
	</g>
	<g>
		<path style="fill:#EBEEF2;" d="M419.5,293h-1c-4.143,0-7.5-3.357-7.5-7.5s3.357-7.5,7.5-7.5h1c4.143,0,7.5,3.357,7.5,7.5    S423.642,293,419.5,293z"/>
		<path style="fill:#EBEEF2;" d="M449.5,293h-1c-4.143,0-7.5-3.357-7.5-7.5s3.357-7.5,7.5-7.5h1c4.143,0,7.5,3.357,7.5,7.5    S453.642,293,449.5,293z"/>
		<path style="fill:#EBEEF2;" d="M479.5,293h-1c-4.143,0-7.5-3.357-7.5-7.5s3.357-7.5,7.5-7.5h1c4.143,0,7.5,3.357,7.5,7.5    S483.642,293,479.5,293z"/>
	</g>
</g>















</svg>
