<?xml version="1.0" encoding="iso-8859-1"?>
<!-- Generator: Adobe Illustrator 21.0.0, SVG Export Plug-In . SVG Version: 6.00 Build 0)  -->
<svg xmlns="http://www.w3.org/2000/svg" xmlns:xlink="http://www.w3.org/1999/xlink" version="1.1" id="Capa_1" x="0px" y="0px" viewBox="0 0 512 512" style="enable-background:new 0 0 512 512;" xml:space="preserve" width="512" height="512">
<g>
	<rect x="270.662" y="210.708" style="fill:#EBEEF2;" width="48.205" height="261.057"/>
	<path style="fill:#C9CDD3;" d="M270.662,263.59c7.703,1.986,15.779,3.042,24.102,3.042s16.399-1.056,24.102-3.042v-52.882h-48.205   V263.59z"/>
	<circle style="fill:#F4D34C;" cx="294.764" cy="142.964" r="96.268"/>
	<path style="fill:#D6A10D;" d="M348.601,63.146c13.14,16.458,20.995,37.321,20.995,60.018c0,53.167-43.101,96.267-96.268,96.267   c-19.943,0-38.47-6.064-53.837-16.45c17.639,22.094,44.803,36.25,75.272,36.25c53.167,0,96.268-43.101,96.268-96.267   C391.032,109.74,374.201,80.447,348.601,63.146z"/>
	<g>
		<path style="fill:#7CCCF2;" d="M398.407,55.131c-1.947,0-3.896-0.743-5.383-2.229c-2.972-2.972-2.972-7.791,0-10.764    l17.314-17.315c2.973-2.972,7.792-2.972,10.765,0c2.972,2.972,2.972,7.791,0,10.764L403.79,52.901    C402.303,54.388,400.355,55.131,398.407,55.131z"/>
		<path style="fill:#7CCCF2;" d="M368.13,42.283c-4.204,0-7.611-3.408-7.611-7.611V7.611c0-4.204,3.407-7.611,7.611-7.611    s7.612,3.408,7.612,7.611v27.06C375.741,38.876,372.334,42.283,368.13,42.283z"/>
		<path style="fill:#7CCCF2;" d="M438.315,85.408h-27.06c-4.204,0-7.611-3.408-7.611-7.611s3.407-7.611,7.611-7.611h27.06    c4.204,0,7.612,3.408,7.612,7.611S442.519,85.408,438.315,85.408z"/>
	</g>
	<g>
		<path style="fill:#243B5D;" d="M257.939,127.958c-4.204,0-7.612-3.408-7.612-7.611v-6.379c0-4.204,3.407-7.611,7.612-7.611    c4.204,0,7.611,3.408,7.611,7.611v6.379C265.55,124.55,262.143,127.958,257.939,127.958z"/>
		<path style="fill:#243B5D;" d="M331.59,127.958c-4.204,0-7.611-3.408-7.611-7.611v-6.379c0-4.204,3.407-7.611,7.611-7.611    s7.612,3.408,7.612,7.611v6.379C339.201,124.55,335.794,127.958,331.59,127.958z"/>
	</g>
	<path style="fill:#243B5D;" d="M294.764,203.318c-22.92,0-41.566-18.646-41.566-41.566c0-4.204,3.407-7.611,7.612-7.611   s7.611,3.408,7.611,7.611c0,14.526,11.818,26.343,26.343,26.343s26.343-11.817,26.343-26.343c0-4.204,3.407-7.611,7.612-7.611   s7.611,3.408,7.611,7.611C336.33,184.671,317.684,203.318,294.764,203.318z"/>
	<path style="fill:#F6BB93;" d="M368.13,398.4c0-10.079-8.171-18.249-18.25-18.249c10.372,0,18.722-8.652,18.229-19.132   c-0.462-9.816-8.917-17.367-18.744-17.367H258.89c-3.013,0-4.985-3.205-3.574-5.868c9.448-17.829,15.47-38.387,15.624-58.252   c0.095-12.277-9.515-22.738-21.791-22.936c-12.405-0.2-22.523,9.797-22.523,22.156c0,14.206-5.205,30.52-14.28,44.759   c-5.719,8.974-11.438,14.69-15.493,17.786c-1.991,1.52-4.41,2.355-6.915,2.355h-32.336v142.496h74.466   c42.68,13.554,81.06,10.911,121.272,2.815c8.231-1.657,14.557-8.669,14.783-17.062c0.278-10.309-7.996-18.753-18.243-18.753   c10.079,0,18.25-8.171,18.25-18.249s-8.171-18.249-18.25-18.249C359.959,416.649,368.13,408.479,368.13,398.4z"/>
	<path style="fill:#E49775;" d="M368.129,434.899c0-10.079-8.17-18.249-18.249-18.249c10.079,0,18.249-8.17,18.249-18.25   c0-10.079-8.17-18.249-18.249-18.249c10.286,0,18.585-8.51,18.239-18.874c-0.331-9.913-8.799-17.625-18.717-17.625h-31.31   c9.827,0,18.282,7.552,18.744,17.367c0.348,7.386-3.698,13.865-9.748,17.045c-1.684,0.885-1.653,3.299,0.029,4.188   c5.792,3.059,9.739,9.142,9.739,16.148c0,7.006-3.948,13.09-9.74,16.149c-1.696,0.895-1.696,3.307,0,4.202   c5.793,3.059,9.74,9.142,9.74,16.148c0,7.004-3.945,13.086-9.735,16.146c-1.671,0.883-1.73,3.301-0.056,4.178   c5.959,3.122,9.98,9.441,9.785,16.678c-0.226,8.388-6.542,15.403-14.768,17.06c-14.67,2.954-29.096,5.182-43.575,6.163   c25.228,1.836,49.672-1.095,74.832-6.16c8.231-1.657,14.558-8.669,14.784-17.062c0.277-10.309-7.996-18.753-18.243-18.753   C359.959,453.148,368.129,444.978,368.129,434.899z"/>
	<path style="fill:#EBEEF2;" d="M126.329,339.397v157.442h40.552c5.622,0,10.18-4.558,10.18-10.18V349.576   c0-5.622-4.558-10.18-10.18-10.18H126.329z"/>
	<path style="fill:#C9CDD3;" d="M166.881,472.066h-40.552v24.773h40.552c5.622,0,10.18-4.558,10.18-10.18v-24.772   C177.061,467.509,172.503,472.066,166.881,472.066z"/>
	<path style="fill:#85B4E1;" d="M126.329,335.524v165.188c0,6.234-5.054,11.288-11.288,11.288H73.933c-4.341,0-7.86-3.519-7.86-7.86   V332.095c0-4.341,3.519-7.86,7.86-7.86h41.108C121.275,324.235,126.329,329.289,126.329,335.524z"/>
	<path style="fill:#3F80C1;" d="M115.041,487.227H66.073v17.158c0,4.205,3.409,7.615,7.615,7.615h41.353   c6.234,0,11.288-5.054,11.288-11.288v-24.773C126.329,482.174,121.276,487.227,115.041,487.227z"/>
</g>















</svg>
