<?xml version="1.0" encoding="iso-8859-1"?>
<!-- Generator: Adobe Illustrator 21.0.0, SVG Export Plug-In . SVG Version: 6.00 Build 0)  -->
<svg xmlns="http://www.w3.org/2000/svg" xmlns:xlink="http://www.w3.org/1999/xlink" version="1.1" id="Capa_1" x="0px" y="0px" viewBox="0 0 512 512" style="enable-background:new 0 0 512 512;" xml:space="preserve" width="512" height="512">
<g>
	<path style="fill:#C9CDD3;" d="M79.475,102.684V486.78c0,13.928,11.291,25.22,25.22,25.22H377.47   c13.928,0,25.22-11.291,25.22-25.22V102.684c0-13.928-11.291-25.22-25.22-25.22H104.694   C90.766,77.465,79.475,88.756,79.475,102.684z"/>
	<path style="fill:#EBEEF2;" d="M52.752,75.961v384.096c0,13.928,11.291,25.22,25.22,25.22h272.776   c13.928,0,25.219-11.291,25.219-25.22V75.961c0-13.928-11.291-25.22-25.219-25.22H77.971   C64.043,50.742,52.752,62.033,52.752,75.961z"/>
	<path style="fill:#BCD151;" d="M281.125,173.468H147.593c-4.204,0-7.611-3.407-7.611-7.611s3.408-7.611,7.611-7.611h133.532   c4.204,0,7.611,3.407,7.611,7.611S285.329,173.468,281.125,173.468z"/>
	<path style="fill:#52668D;" d="M320.055,245.415h-211.39c-4.204,0-7.611-3.407-7.611-7.611s3.408-7.611,7.611-7.611h211.39   c4.204,0,7.612,3.407,7.612,7.611S324.259,245.415,320.055,245.415z"/>
	<path style="fill:#52668D;" d="M320.055,300.917h-211.39c-4.204,0-7.611-3.407-7.611-7.611s3.408-7.612,7.611-7.612h211.39   c4.204,0,7.612,3.407,7.612,7.612S324.259,300.917,320.055,300.917z"/>
	<path style="fill:#52668D;" d="M320.055,356.418h-211.39c-4.204,0-7.611-3.407-7.611-7.612s3.408-7.611,7.611-7.611h211.39   c4.204,0,7.612,3.407,7.612,7.611S324.259,356.418,320.055,356.418z"/>
	<path style="fill:#F6BB93;" d="M429.402,404.533c-7.456,0.353-13.86-4.388-16.032-11.042c-0.253-0.775-1.327-0.763-1.58,0.012   c-2.099,6.415-8.133,11.048-15.249,11.048c-7.12,0-13.156-4.638-15.252-11.058c-0.254-0.778-1.324-0.778-1.578,0   c-2.096,6.42-8.132,11.058-15.252,11.058c-8.859,0-16.041-7.182-16.041-16.041v54.193c0,8.637-6.638,16.069-15.265,16.475   c-9.212,0.434-16.816-6.906-16.816-16.022v-98.089l-21.036,26.208c-6.049,7.209-16.444,7.663-23.098,1.008l0,0   c-6.655-6.655-7.15-17.998-1.101-25.207l45.234-55.047v-27.987h128.325v71.523v24.262v28.231   C444.663,396.476,437.81,404.135,429.402,404.533z"/>
	<rect x="316.338" y="264.043" style="fill:#E49775;" width="128.325" height="24.484"/>
	<path style="fill:#E49775;" d="M423.103,264.043v71.523v24.262v28.231c0,4.663-2.108,9.086-5.412,12.178   c3.04,2.836,7.178,4.511,11.711,4.297c8.409-0.398,15.261-8.057,15.261-16.475v-28.231v-24.262v-71.523H423.103z"/>
	<path style="fill:#3872B7;" d="M454.428,205.711H311.61c-2.662,0-4.821,2.158-4.821,4.821v53.576c0,3.958,3.208,7.166,7.166,7.166   h138.127c3.958,0,7.166-3.208,7.166-7.166v-53.576C459.248,207.869,457.09,205.711,454.428,205.711z"/>
	<path style="fill:#254E87;" d="M454.428,205.711h-24.357c2.663,0,4.821,2.158,4.821,4.821v53.576c0,3.958-3.208,7.166-7.166,7.166   h24.357c3.958,0,7.166-3.208,7.166-7.166v-53.576C459.248,207.869,457.09,205.711,454.428,205.711z"/>
	<path style="fill:#EBEEF2;" d="M334.207,246.104h-4.111c-4.204,0-7.611-3.407-7.611-7.611s3.407-7.611,7.611-7.611h4.111   c4.204,0,7.612,3.407,7.612,7.611S338.411,246.104,334.207,246.104z"/>
	<path style="fill:#52668D;" d="M126.456,0c-20.611,0-37.38,16.769-37.38,37.381v13.361v0h15.223v0V37.381   c0-12.218,9.939-22.158,22.157-22.158c12.218,0,22.157,9.94,22.157,22.158v69.908c0,6.287-5.115,11.403-11.402,11.403   c-6.287,0-11.402-5.115-11.402-11.403V77.484c0-4.204-3.408-7.612-7.611-7.612c-4.204,0-7.612,3.407-7.612,7.612v29.805   c0,14.681,11.944,26.625,26.625,26.625c14.681,0,26.625-11.945,26.625-26.625V37.381C163.836,16.769,147.067,0,126.456,0z"/>
</g>















</svg>
